Coordinates
version=1
nRows=5
nColumns=63
inDegrees=yes

Units are S.I. units (second, meters, Newtons, ...)
If the header above contains a line with 'inDegrees', this indicates whether rotational values are in degrees (yes) or radians (no).

endheader
time	pelvis_tilt	pelvis_list	pelvis_rotation	pelvis_tx	pelvis_ty	pelvis_tz	hip_flexion_r	hip_adduction_r	hip_rotation_r	knee_angle_r	knee_angle_r_beta	ankle_angle_r	subtalar_angle_r	mtp_angle_r	hip_flexion_l	hip_adduction_l	hip_rotation_l	knee_angle_l	knee_angle_l_beta	ankle_angle_l	subtalar_angle_l	mtp_angle_l	L5_S1_Flex_Ext	L5_S1_Lat_Bending	L5_S1_axial_rotation	L4_L5_Flex_Ext	L4_L5_Lat_Bending	L4_L5_axial_rotation	L3_L4_Flex_Ext	L3_L4_Lat_Bending	L3_L4_axial_rotation	L2_L3_Flex_Ext	L2_L3_Lat_Bending	L2_L3_axial_rotation	L1_L2_Flex_Ext	L1_L2_Lat_Bending	L1_L2_axial_rotation	L1_T12_Flex_Ext	L1_T12_Lat_Bending	L1_T12_axial_rotation	Abs_r3	Abs_r2	Abs_r1	Abs_t1	Abs_t2	neck_flexion	neck_bending	neck_rotation	arm_flex_r	arm_add_r	arm_rot_r	elbow_flex_r	pro_sup_r	wrist_flex_r	wrist_dev_r	arm_flex_l	arm_add_l	arm_rot_l	elbow_flex_l	pro_sup_l	wrist_flex_l	wrist_dev_l
      0.00000000	     -4.65368934	     -3.09942511	     88.62473486	      0.16824617	      0.46021171	      1.07579155	      1.71598156	     -6.05670234	     -9.88169612	      5.24531096	      0.09154795	     29.99142841	     12.05893141	      0.00000000	      0.55746967	      4.42689018	     12.64175037	      0.85421812	      0.01490892	     12.03379121	    -17.22803031	      0.00000000	     -0.06226822	     -0.88487440	      1.30422921	     -0.11563831	     -1.17688295	      1.38574354	     -0.10230046	     -2.15148361	      1.38574354	     -0.07116635	     -2.15148361	      1.14120056	     -0.05782227	     -1.80443587	      1.05968623	     -0.03558006	     -1.37067044	      0.97817191	     -0.44477567	    -10.00987614	      7.25373160	      0.00000000	      0.00000000	     21.59890480	      9.63977177	     -9.65607150	     23.09173088	     -5.99244787	     70.50480499	     26.50368453	     88.58120499	    -28.25579999	    -11.22783701	     10.85576583	    -15.29531414	     64.53172753	     36.74495930	     60.58516086	     -5.44741393	     -7.43972632
      0.01694915	     -4.82219592	     -3.52956724	     90.10365750	      0.16501606	      0.45918962	      1.07773324	      1.66109215	     -6.35981250	    -11.53608812	      4.63111375	      0.08082818	     29.71672361	     12.63942108	      0.00000000	      1.54058995	      4.85573800	     13.18147068	      1.58426960	      0.02765072	     13.60069880	    -16.45239782	      0.00000000	     -0.02591654	     -0.88642256	      0.99935136	     -0.04812961	     -1.17894200	      1.06181082	     -0.04257828	     -2.15524780	      1.06181082	     -0.02962001	     -2.15524780	      0.87443244	     -0.02406610	     -1.80759288	      0.81197298	     -0.01480871	     -1.37306854	      0.74951352	     -0.18511925	    -10.02738924	      5.55809247	      0.00000000	      0.00000000	     22.31158559	      8.98954201	     -8.93401391	     22.41082313	     -6.14506585	     69.71367925	     28.53433134	     88.56658323	    -17.94277703	     -8.91181204	     11.58344822	    -15.26691917	     66.11565756	     38.13403893	     59.76385300	     -0.25258159	     -1.57130963
      0.03389831	     -4.81029059	     -4.08248767	     91.23777357	      0.16169564	      0.45779388	      1.07949110	      1.91595536	     -6.55229003	    -13.44638617	      4.36464524	      0.07617743	     29.65730068	     13.74505570	      0.00000000	      2.78782512	      5.17117166	     13.22191494	      2.80717973	      0.04899453	     15.17662478	    -15.43846353	      0.00000000	      0.00359510	     -0.86098195	      0.98227911	      0.00667645	     -1.14510599	      1.04367155	      0.00590638	     -2.09339151	      1.04367155	      0.00410883	     -2.09339151	      0.85949422	      0.00333841	     -1.75571439	      0.79810177	      0.00205424	     -1.33366104	      0.73670933	      0.02567941	     -9.73960001	      5.46314170	      0.00000000	      0.00000000	     23.37854904	      7.51480607	     -9.90655511	     18.81742698	     -6.83262455	     56.38582315	     32.92590336	     88.35100847	     -3.74646375	     -1.69579311	     13.18758743	    -14.84557738	     69.33489884	     40.08850473	     48.84051423	      1.51436380	      3.22779638
      0.05084746	     -4.64532484	     -4.57088469	     92.18768051	      0.15862567	      0.45662844	      1.08122846	      2.16716208	     -6.57513802	    -14.76474413	      4.17820623	      0.07292346	     29.52944287	     14.22123517	      0.00000000	      4.08287823	      5.34271094	     12.91940055	      4.40382078	      0.07686117	     16.63696575	    -14.17386029	      0.00000000	      0.03283095	     -0.80319231	      0.92503710	      0.06097036	     -1.06824577	      0.98285192	      0.05393797	     -1.95288178	      0.98285192	      0.03752250	     -1.95288178	      0.80940746	      0.03048682	     -1.63786976	      0.75159264	      0.01875961	     -1.24414489	      0.69377782	      0.23450821	     -9.08587203	      5.14477884	      0.00000000	      0.00000000	     24.01809158	      6.06754050	     -9.92513120	     16.40627057	     -6.33017278	     47.44976871	     34.89100591	     86.86764223	      4.77321293	      4.22751543	     13.50008794	    -14.47110884	     70.03036627	     45.01419517	      6.63084103	     -5.16112944	      8.00917803
      0.06779661	     -4.48537974	     -5.01968520	     93.07505089	      0.15638953	      0.45554539	      1.08277120	      2.41429024	     -6.55050562	    -15.65151919	      4.07521364	      0.07112590	     29.43106612	     14.07812806	      0.00000000	      5.27618325	      5.47140521	     12.88890074	      5.97523651	      0.10428755	     17.65206733	    -13.34605786	      0.00000000	      0.06726590	     -0.76281662	      0.81713027	      0.12491951	     -1.01454611	      0.86820091	      0.11051115	     -1.85471233	      0.86820091	      0.07687820	     -1.85471233	      0.71498899	      0.06246312	     -1.55553565	      0.66391834	      0.03843574	     -1.18160295	      0.61284770	      0.48047362	     -8.62913418	      4.54463342	      0.00000000	      0.00000000	     24.38586993	      5.14662304	    -10.08416030	     15.35758983	     -5.58645862	     43.80079466	     35.59652131	     80.88800365	      8.55018621	      8.10601227	     13.75964731	    -14.19302522	     67.28562966	     47.44745998	      4.14245073	     -6.29198033	      8.16234578
